<svg width="100" height="100" viewBox="0 0 100 100" fill="none" xmlns="http://www.w3.org/2000/svg">
<path d="M46.9042 0.0166485C45.3625 0.0583152 43.8417 0.183315 42.3208 0.412482C40.0708 0.637482 37.8208 1.76665 35.3417 2.89165C32.1875 4.24165 29.0292 5.59581 26.1 5.82081C21.1417 7.39581 19.5667 9.64998 18.2167 11.45C18.2167 11.675 17.9917 11.9 17.9917 11.9C16.1875 15.5041 15.9625 19.1083 16.6375 22.7125C17.3125 24.9666 18.2125 27 18.8875 29.025C20.4708 33.3083 22.0458 37.3583 22.7208 42.0916C23.4 43.4458 24.0708 45.2458 24.5208 47.05C25.6458 50.6541 26.7792 54.7083 30.1583 57.8625L30.1833 57.85C30.2542 57.9291 30.3083 58.0166 30.3833 58.0875L30.4708 58.0458L30.3875 55.6125C33.0875 51.5541 36.9125 48.85 42.3208 47.725C44.4875 47.2666 46.825 47.1 49.25 47.1916C51.7745 47.2598 54.2851 47.5893 56.7417 48.175C62.825 49.75 67.5542 52.9083 67.7833 55.6125C67.8958 57.0875 67.95 58.5083 67.9167 59.9291C67.9167 60.1958 67.9 60.4625 67.8875 60.7333L68.4542 61.0166C68.7953 60.8195 69.0885 60.5491 69.3125 60.225L69.325 60.2125L69.35 60.1791C69.5167 59.9541 69.6625 59.6625 69.8083 59.3708C69.8917 59.2166 69.9667 59.0125 70.0417 58.8333C70.8958 56.9083 71.55 54.0291 72.2833 50.6541C72.5083 49.5291 72.7417 48.625 72.9625 47.725C74.7667 43.6708 77.2417 40.0666 79.7208 36.6833C83.775 31.0583 87.6042 25.8708 87.1542 19.7875C79.7208 5.36665 69.3542 3.11248 63.9458 1.98748C63.0458 1.76248 62.6 1.76248 61.925 1.53748C56.35 0.520815 51.5333 -0.112518 46.9042 0.0166485ZM67.9167 59.9291C67.9404 58.5625 67.8959 57.1955 67.7833 55.8333C67.5583 52.9041 62.825 49.75 56.5167 48.175C54.1299 47.6239 51.6974 47.2947 49.25 47.1916C47.0769 47.1188 44.9027 47.2978 42.7708 47.725C37.5875 48.85 33.5375 51.5583 31.0583 55.6083L31.2708 61.5708C34.05 60.0916 38.4917 57.9291 44.3542 57.4041C44.625 57.3833 44.9208 57.3833 45.2042 57.3666C45.6917 57.3125 46.3125 57.1833 47.0542 57.1833C53.75 57.1833 60.6708 59.4083 67.375 64.05C67.5375 62.9083 67.625 61.7625 67.6667 60.6208L67.8542 60.7166C67.8625 60.4541 67.9125 60.1875 67.9167 59.925V59.9291ZM46.9 0.241649C47.4167 0.224982 47.9583 0.283315 48.4792 0.287482C47.5208 0.279148 46.5667 0.299982 45.6167 0.354149C46.0458 0.329149 46.4708 0.254149 46.9 0.241649ZM43.5 0.541649C43.1833 0.579148 42.8625 0.595815 42.5458 0.641649C39.1417 1.12915 35.1542 3.56248 31.0875 4.99581C32.5667 4.44581 34.0625 3.76248 35.5667 3.12082C37.8167 1.99582 40.2958 0.866648 42.3208 0.641649C42.7125 0.583315 43.1083 0.587482 43.5 0.541649ZM42.5458 1.54165C43.2208 1.54165 44.125 1.54165 44.8 1.76665C44.2943 1.65092 43.7713 1.63113 43.2583 1.70832C43.7082 1.7416 44.1513 1.83695 44.575 1.99165C46.9917 6.15831 42.8 23.9875 41.7458 35.9458C42.2979 39.7385 42.9412 43.5174 43.675 47.2791C40.7458 39.8458 37.8167 26.775 37.3625 16.6375C37.1375 12.5833 37.3667 8.97498 38.2708 6.27498C39.1667 3.56248 40.5208 1.76248 42.5417 1.53748L42.5458 1.54165ZM55.6125 2.66665C52.2375 11.4583 51.7875 28.125 51.5625 33.3083C51.3375 35.5583 51.5625 40.5166 51.7875 44.1208C51.7875 45.0208 52.0125 45.9208 52.0125 46.825C52.0125 45.9208 51.7875 45.2458 51.7875 44.3458C49.9833 30.8291 47.7292 14.6125 55.6125 2.67081V2.66665ZM69.5792 4.24581C68.4542 13.2541 63.725 17.5375 62.15 26.3291C61.7 33.3125 60.7958 41.4208 60.5708 48.4041C60.3458 41.4208 60.5708 33.9875 61.6958 26.55C62.8208 18.8916 65.3 11.2291 69.5792 4.24581ZM27.2083 6.86248C28.138 6.8519 29.035 7.20473 29.7083 7.84581L29.65 7.81665C30.2042 8.19998 30.7583 8.68748 31.2875 9.41665C30.4375 13.45 32.35 22.05 31.4542 28.875C31.7708 35.325 31.75 42.125 34.9917 47.4541C30.9083 41.1625 30.0917 33.1291 29.4833 25.6375C29.0125 21.0958 28.6333 16.9 27.55 13.5416C26.95 12.2708 26.4292 11.1458 25.95 10.1166C25.85 9.96248 25.7667 9.78748 25.6583 9.64165C25.2501 9.21735 25.0102 8.65901 24.9833 8.07082C24.9833 7.84581 25.2042 7.39581 25.4333 7.39581C25.6583 7.17081 26.1042 7.16248 26.3292 6.93748C26.6174 6.88212 26.9107 6.85699 27.2042 6.86248H27.2083ZM21.5958 9.41665C21.3458 9.49998 21.2125 9.58748 21.0125 9.67082C21.75 9.52915 22.5208 9.81248 23.1792 10.9958C22.3958 14.7125 24.9958 25.0333 24.9625 32.2625C26.2667 39.9625 27.2542 48.3041 31.5125 53.575C26.5542 47.9458 24.5292 38.0333 22.9542 29.6958C21.6 23.1625 20.4708 17.5291 18.2208 15.7291C17.9958 15.2791 17.7708 15.05 17.7708 14.6C17.7708 13.925 17.7708 13.0208 18.2208 12.1208C17.0667 14.7625 16.5333 17.4 16.6792 20.0416C16.5086 17.3131 17.0394 14.5862 18.2208 12.1208C18.2208 11.8958 18.4458 11.8958 18.4458 11.6708C18.4958 11.6041 18.575 11.525 18.6292 11.4583C18.8698 11.0431 19.1897 10.6792 19.5708 10.3875C19.8 10.1333 19.9708 9.88748 20.2333 9.62915C20.0125 9.86248 19.8667 10.0875 19.675 10.3166C19.7875 10.2416 19.8917 10.1625 20.025 10.1C20.2217 9.8791 20.4641 9.70359 20.7353 9.5856C21.0065 9.46761 21.3001 9.40997 21.5958 9.41665ZM20.025 10.1C20.0083 10.1291 19.9917 10.1416 19.975 10.175L20.1292 10.05L20.025 10.1ZM81.525 14.825L81.5042 14.8875C81.6625 14.8666 81.8167 14.8166 81.975 14.825C81.8208 14.8166 81.6583 14.8666 81.4958 14.9083C77.9 25.9166 73.6333 36.925 69.3667 47.9333C69.3643 47.9377 69.3615 47.9419 69.3583 47.9458C68.9958 49.8833 68.3833 51.6291 67.1083 52.9041C68.9125 50.875 69.1333 47.9416 69.3583 44.3375C69.5833 40.9583 69.5833 37.3541 71.3875 33.7458C71.3875 33.525 71.3917 33.3083 71.6083 33.0833L71.6125 33.075C72.0167 31.6041 72.4542 30.2041 72.9333 28.8333C74.675 23.4583 77.6833 15.6416 81.3208 14.9166C81.3875 14.8916 81.4625 14.8375 81.5292 14.825H81.525ZM34.8917 67.5416L33.5417 67.9917C34.2167 68.8958 34.6667 69.575 35.1167 69.7958C35.5962 70.0778 36.1397 70.2327 36.6958 70.2458C36.9208 70.2458 37.3667 70.2458 37.5917 70.0208L40.975 68.8958C41.2 68.8958 41.425 68.6708 41.65 68.6708C42.1 68.6708 42.325 68.6708 42.775 68.8958L43.9042 70.0208L45.0292 69.7958C44.5792 69.1208 43.9042 68.45 43.4542 68.225C43.0042 68 42.55 67.7666 41.875 67.7666H41.425L37.8167 69.1208H37.1458C36.6917 69.1208 36.2458 69.1208 36.0208 68.8958C35.7958 68.6708 35.3417 68.2208 34.8917 67.5416ZM24.075 69.7958C22.95 70.4708 21.3708 71.6 19.1167 72.5C16.8667 73.4 15.0625 74.3041 14.1583 75.2041C13.2625 76.1041 12.8125 77.0042 12.8125 77.9083C12.8125 78.3583 13.0375 78.5875 13.4875 78.8125C13.7125 79.0375 14.1667 79.0375 14.3917 79.2625C17.5342 80.6257 20.615 82.1272 23.625 83.7625C24.0792 83.9875 24.5292 84.4416 24.7583 84.6666C24.9833 84.8916 25.2042 84.8916 25.4292 84.8916C25.8833 84.8916 26.5542 84.6708 27.0042 84.2166C27.4542 83.7666 27.6833 83.3125 27.6833 82.8625C27.6833 82.4125 27.4542 82.1917 27.0042 81.9667C27.0042 81.9667 25.2 81.0625 22.0458 79.7125C20.3512 78.9784 18.6986 78.1507 17.0958 77.2333C17.7708 76.1083 19.1208 75.2041 21.15 74.3041C23.4 73.4042 24.9833 72.5 25.6542 71.825C25.8792 71.6 25.8792 71.375 25.8792 71.15C25.8232 70.8103 25.6664 70.4953 25.4292 70.2458C25.1207 69.965 24.7212 69.8052 24.3042 69.7958H24.075ZM70.9375 69.7958C70.599 69.8516 70.2852 70.0084 70.0375 70.2458C69.8125 70.6958 69.5833 70.925 69.5833 71.15V71.375C70.2583 72.05 71.1667 72.5 72.5167 72.95C73.6417 73.175 74.7667 73.6292 75.8958 73.8541C77.2458 74.3041 78.1458 74.9791 78.6 75.8792V76.1083C78.6 76.3333 78.1458 76.7833 77.2458 77.2333C76.7958 77.4583 75.8917 78.1375 74.7667 79.0375C73.6417 79.7125 72.9625 80.3833 72.2875 80.6083C71.3875 81.0625 70.7125 81.5125 70.4875 81.9667C70.2625 82.1917 70.2625 82.4125 70.2625 82.6375C70.2625 83.0875 70.4875 83.0875 70.7125 83.5375C70.9375 83.9875 71.3875 83.9958 71.6125 83.9958C71.8375 83.9958 72.0625 83.7625 72.2875 83.7625C73.4125 83.0875 74.9958 82.1875 76.7958 80.6083C78.8208 79.0333 80.4 77.9083 81.3042 77.2333C82.2042 76.7833 82.65 76.3291 82.65 75.65C82.65 75.4291 82.65 74.9791 82.2 74.7542C80.625 72.95 78.375 71.8291 75.6708 70.925C75.2208 70.7 74.5458 70.4708 73.1917 70.2458C72.5167 70.0208 71.8375 69.7958 71.3875 69.7958H70.9375ZM58.5458 73.1708C57.4208 73.1708 56.5167 73.4041 55.8417 74.0791C54.9417 74.7541 54.7167 75.8791 54.9417 77.2333C54.9417 78.3583 55.3917 79.2583 56.0667 80.1625C56.7417 81.0625 57.6458 81.5166 58.5458 81.5166C59.2208 81.5166 59.6708 81.2833 60.35 81.0583C61.475 80.3833 61.9292 79.2583 61.9292 77.2333C61.9292 75.6541 61.475 74.5291 60.8 73.8583C60.1396 73.3983 59.3505 73.1591 58.5458 73.175V73.1708ZM39.8458 73.4C38.7208 73.4 37.8208 73.6292 37.1458 74.3041C36.2417 74.9791 36.0208 76.1041 36.2458 77.4583C36.2458 78.5833 36.6917 79.4833 37.3708 80.3833C38.05 81.2833 38.9458 81.7416 39.8458 81.7416C40.525 81.7416 40.975 81.5083 41.65 81.2833C42.775 80.6083 43.225 79.4833 43.225 77.4583C43.225 75.6542 42.775 74.5292 42.1 74.0833C41.4407 73.6242 40.6533 73.385 39.85 73.4H39.8458ZM39.8458 76.1083C40.525 76.1083 40.975 76.5583 40.975 77.2333C40.975 77.9083 40.2958 78.3583 39.85 78.3583C39.1708 78.3583 38.725 77.9083 38.725 77.2333C38.725 76.5583 39.1708 76.1083 39.85 76.1083H39.8458ZM58.0958 76.3333C58.7708 76.3333 59.225 76.7792 59.225 77.4583C59.225 77.9083 58.7708 78.5833 58.1 78.5833C57.4208 78.5833 56.975 78.1333 56.975 77.4583C56.975 76.7792 57.4208 76.3333 58.1 76.3333H58.0958ZM46.8333 85.1166L47.5083 86.4667C47.7363 86.8952 48.0414 87.278 48.4083 87.5958C48.6333 87.8208 49.0875 88.2708 49.5333 88.2708H49.9875C50.4375 88.2708 50.6583 88.2708 50.8833 88.0458C51.1083 87.8208 51.5667 87.8208 51.7917 87.5958L52.4625 86.9208C52.6875 86.6958 52.9125 86.4666 52.9125 86.2416C53.1375 86.0166 53.1375 85.7916 53.3625 85.5666C53.3625 85.3416 53.5875 85.1166 53.5875 85.1166C53.3625 85.5666 52.9125 86.0166 52.6875 86.4667C52.2375 86.6917 52.0167 87.1458 51.5625 87.1458C51.1167 87.3708 50.6625 87.3708 50.2125 87.3708C49.7625 87.3708 49.3125 87.3708 49.0875 87.1458C48.6375 87.1458 48.4083 86.9208 48.1833 86.6958L47.5083 86.0166C47.2833 85.7916 47.0583 85.3416 46.8333 85.1166ZM43.225 89.4C38.4917 89.4 35.5667 95.7083 28.8083 90.075C27.0083 101.117 40.3 102.017 45.9333 97.2833C49.7667 93.9083 48.6333 89.175 43.225 89.4ZM55.1667 89.4C49.7625 89.175 48.6333 93.9083 52.4667 97.2875C58.0958 102.017 71.3833 101.112 69.5833 90.075C62.825 95.7083 60.125 89.4 55.1667 89.4Z" fill="white"/>
</svg>
