<svg width="95" height="95" viewBox="0 0 95 95" fill="none" xmlns="http://www.w3.org/2000/svg">
<g clip-path="url(#clip0_70_219)">
<path d="M2.169 42.1671C-0.576876 66.9995 17.3788 89.3505 42.2742 92.0895C67.1696 94.8284 89.5773 76.9181 92.3231 52.0856C95.069 27.2532 77.1133 4.90222 52.2179 2.16329C27.3225 -0.57564 4.91487 17.3347 2.169 42.1671Z" stroke="#FF4655" stroke-width="3.77953" stroke-miterlimit="0.8" stroke-linecap="round"/>
<path d="M16.3599 43.7286C14.4785 60.7434 26.7815 76.0579 43.8394 77.9346C60.8974 79.8113 76.2508 67.5394 78.1322 50.5246C80.0136 33.5098 67.7106 18.1952 50.6527 16.3185C33.5947 14.4419 18.2413 26.7137 16.3599 43.7286Z" fill="#FF4655"/>
<path d="M14.4963 55.1798L6.1204 56.5208L5.19878 50.7933L6.61569 50.5665L7.26587 54.607L9.24844 54.2897L8.68721 50.8019L10.1041 50.575L10.6654 54.0628L14.2248 53.4929L14.4963 55.1798Z" fill="#FF4655"/>
<path d="M13.4728 48.0146L5.01479 47.3645L5.29179 43.7792C5.36144 42.8776 5.48889 42.2294 5.67416 41.8345C5.85586 41.4355 6.15047 41.1282 6.55793 40.9125C6.96537 40.6969 7.4191 40.6083 7.91911 40.6467C8.55375 40.6955 9.0644 40.9219 9.45106 41.3259C9.83386 41.7297 10.0505 42.3059 10.101 43.0547C10.3449 42.7029 10.6049 42.418 10.8809 42.2C11.1573 41.9781 11.64 41.6891 12.3292 41.3329L14.0588 40.4297L13.9014 42.4669L11.9658 43.5569C11.2743 43.9438 10.8377 44.2112 10.656 44.3594C10.4705 44.5072 10.34 44.6689 10.2645 44.8445C10.1851 45.0197 10.1303 45.303 10.1002 45.6944L10.0734 46.0397L13.6044 46.3111L13.4728 48.0146ZM8.72347 45.936L8.82082 44.6757C8.88395 43.8585 8.88874 43.3456 8.83522 43.1369C8.7817 42.9282 8.67478 42.7599 8.51444 42.6318C8.3541 42.5036 8.14703 42.4297 7.89322 42.4101C7.6086 42.3882 7.37381 42.4474 7.18887 42.5875C7.00039 42.7236 6.87239 42.9279 6.80491 43.2006C6.77501 43.3372 6.73339 43.7508 6.68003 44.4414L6.57731 45.7708L8.72347 45.936Z" fill="#FF4655"/>
<path d="M10.2608 38.421C9.4468 38.1317 8.80695 37.7675 8.34132 37.3284C7.99903 37.0025 7.72186 36.6263 7.50977 36.1996C7.29897 35.7693 7.18209 35.3397 7.15917 34.9109C7.12575 34.3394 7.2249 33.7292 7.45663 33.0804C7.876 31.9059 8.5765 31.0968 9.55813 30.6532C10.541 30.2059 11.6829 30.2134 12.9839 30.6757C14.274 31.1341 15.1593 31.8429 15.6399 32.8019C16.1168 33.7598 16.1463 34.8241 15.7281 35.9949C15.3048 37.1802 14.6066 37.9942 13.6336 38.4368C12.657 38.8782 11.5327 38.8729 10.2608 38.421ZM10.7985 36.7432C11.7034 37.0647 12.4647 37.1004 13.0823 36.8501C13.6964 36.5985 14.1179 36.1519 14.3471 35.5103C14.5762 34.8687 14.5331 34.2611 14.2179 33.6876C13.9003 33.1091 13.2782 32.6552 12.3515 32.3259C11.4358 32.0005 10.6808 31.9589 10.0864 32.2012C9.49341 32.4398 9.07844 32.8907 8.84154 33.5541C8.60466 34.2174 8.64267 34.8334 8.95554 35.4021C9.26482 35.9695 9.87914 36.4165 10.7985 36.7432V36.7432Z" fill="#FF4655"/>
<path d="M17.6912 30.8988L10.7167 26.0821L11.6653 24.7154L18.2993 25.0847L13.6416 21.8681L14.5475 20.5631L21.5221 25.3797L20.5438 26.7892L14.0488 26.4528L18.597 29.5938L17.6912 30.8988Z" fill="#FF4655"/>
<path d="M24.2122 22.7843L19.4591 17.5934L17.6005 19.2866L16.6327 18.2297L21.6103 13.6949L22.5781 14.7518L20.7238 16.4412L25.4769 21.6321L24.2122 22.7843Z" fill="#FF4655"/>
<path d="M26.4109 18.0441L25.5164 16.6897L28.1839 14.937L29.0783 16.2914L26.4109 18.0441Z" fill="#FF4655"/>
<path d="M31.1189 17.6294L27.7741 9.85327L33.5545 7.37944L34.1203 8.69491L29.914 10.4951L30.6555 12.219L34.5694 10.544L35.1329 11.8541L31.2191 13.5291L32.1294 15.6456L36.4847 13.7817L37.0482 15.0918L31.1189 17.6294Z" fill="#FF4655"/>
<path d="M38.4877 14.6692L37.1181 6.31862L38.7628 6.05025L43.1038 11.0677L42.1892 5.49113L43.7596 5.23487L45.1292 13.5855L43.4331 13.8622L39.165 8.96741L40.0581 14.413L38.4877 14.6692Z" fill="#FF4655"/>
<path d="M47.7573 5.08317L50.8741 5.37485C51.577 5.44062 52.1077 5.54438 52.4664 5.68616C52.9481 5.87812 53.3482 6.17645 53.6666 6.58112C53.9851 6.9858 54.211 7.46686 54.3446 8.0243C54.4785 8.57791 54.5084 9.24932 54.4341 10.0385C54.3689 10.732 54.2263 11.3215 54.0062 11.8072C53.7373 12.4004 53.3892 12.8684 52.9617 13.211C52.639 13.4706 52.2185 13.6574 51.7002 13.7712C51.3126 13.8547 50.8039 13.867 50.174 13.8081L46.9649 13.5078L47.7573 5.08317ZM49.3286 6.66795L48.8038 12.248L50.077 12.3671C50.5533 12.4117 50.8995 12.417 51.1158 12.3832C51.3989 12.3401 51.6384 12.2446 51.8344 12.0968C52.0342 11.9493 52.2095 11.6932 52.36 11.3285C52.5113 10.9602 52.6174 10.4503 52.6782 9.79885C52.7395 9.14756 52.7289 8.64221 52.6464 8.28279C52.564 7.92338 52.4283 7.63627 52.2392 7.42148C52.0502 7.20668 51.7996 7.04989 51.4872 6.9511C51.2542 6.87518 50.79 6.80469 50.0948 6.73964L49.3286 6.66795Z" fill="#FF4655"/>
<path d="M88.3804 37.7644L88.8344 40.8539C88.9367 41.5507 88.9614 42.0896 88.9082 42.4707C88.8353 42.9831 88.6395 43.4414 88.3208 43.8459C88.002 44.2503 87.587 44.5832 87.0757 44.8446C86.5681 45.1055 85.9212 45.2934 85.1349 45.4083C84.4441 45.5094 83.8361 45.5107 83.3109 45.4125C82.6694 45.2924 82.1312 45.0658 81.6963 44.7327C81.3669 44.4814 81.0854 44.1181 80.8518 43.6428C80.6787 43.287 80.5462 42.7969 80.4545 42.1725L79.9871 38.9915L88.3804 37.7644ZM87.2089 39.6624L81.6496 40.4752L81.835 41.7373C81.9044 42.2094 81.9812 42.5462 82.0654 42.7478C82.1744 43.0119 82.3241 43.2214 82.5145 43.3763C82.7054 43.5351 82.9964 43.6441 83.3874 43.7033C83.782 43.7623 84.3038 43.7443 84.9527 43.6495C85.6016 43.5546 86.0913 43.4247 86.4218 43.2597C86.7524 43.0947 86.9999 42.8951 87.1643 42.6611C87.3288 42.427 87.4221 42.147 87.4444 41.8209C87.4631 41.5771 87.4219 41.1106 87.3207 40.4215L87.2089 39.6624Z" fill="#FF4655"/>
<path d="M80.9806 47.4904L89.4208 48.3398L88.7893 54.5822L87.3615 54.4385L87.821 49.896L85.9499 49.7077L85.5223 53.9343L84.1003 53.7912L84.5278 49.5645L82.2307 49.3334L81.7549 54.0367L80.3328 53.8936L80.9806 47.4904Z" fill="#FF4655"/>
<path d="M79.2644 57.3642L88.2729 57.3029L87.6597 59.0518L81.0246 59.0056L86.2651 63.0291L85.6652 64.7398L78.6607 59.0859L79.2644 57.3642Z" fill="#FF4655"/>
<path d="M77.1716 62.7128L84.3105 67.2837L80.9127 72.5635L79.705 71.7903L82.1775 67.9482L80.5949 66.9348L78.2943 70.5098L77.0915 69.7397L79.3921 66.1647L77.4492 64.9207L74.8891 68.8988L73.6863 68.1286L77.1716 62.7128Z" fill="#FF4655"/>
<path d="M72.6706 69.2607L78.5595 75.2547L77.3362 76.4505L72.4477 71.4747L69.4059 74.4481L68.4055 73.4298L72.6706 69.2607Z" fill="#FF4655"/>
<path d="M69.8606 77.6695C70.2967 78.4136 70.5512 79.1032 70.624 79.7383C70.6755 80.2074 70.6447 80.6733 70.5316 81.136C70.4151 81.6006 70.2272 82.0043 69.9679 82.3472C69.6246 82.8059 69.1548 83.2091 68.5587 83.5567C67.4796 84.1859 66.4214 84.355 65.384 84.0641C64.3433 83.775 63.4744 83.0359 62.7774 81.8467C62.0862 80.6674 61.8663 79.5565 62.1178 78.514C62.3712 77.4748 63.0357 76.6415 64.1114 76.0143C65.2004 75.3792 66.26 75.2049 67.2902 75.4911C68.3224 75.7807 69.1791 76.5068 69.8606 77.6695L69.8606 77.6695ZM68.3662 78.6078C67.8814 77.7806 67.3219 77.2645 66.6878 77.0593C66.0556 76.8573 65.4448 76.9283 64.8553 77.2721C64.2658 77.6158 63.9066 78.1083 63.7775 78.7497C63.647 79.3962 63.83 80.1431 64.3265 80.9902C64.8171 81.8273 65.368 82.3441 65.9791 82.5404C66.5868 82.7387 67.1954 82.6602 67.8049 82.3048C68.4143 81.9494 68.7829 81.4537 68.9106 80.8176C69.0402 80.1849 68.8587 79.4483 68.3662 78.6078V78.6078Z" fill="#FF4655"/>
<path d="M59.326 78.6128L61.6267 86.7573L58.9811 87.5008C57.9785 87.7826 57.3135 87.9255 56.986 87.9296C56.4836 87.9389 56.0166 87.7823 55.5848 87.46C55.1541 87.1413 54.8472 86.6578 54.6641 86.0097C54.5229 85.5097 54.4951 85.0637 54.5808 84.6719C54.6665 84.28 54.8227 83.9462 55.0495 83.6706C55.2735 83.3998 55.5215 83.1921 55.7934 83.0478C56.165 82.8594 56.724 82.6603 57.4703 82.4506L58.5453 82.1484L57.6774 79.0762L59.326 78.6128ZM59.5888 85.8428L58.936 83.5317L58.0337 83.7853C57.3839 83.9679 56.9615 84.1326 56.7665 84.2793C56.5715 84.4261 56.4384 84.6075 56.3671 84.8234C56.292 85.0403 56.2885 85.2692 56.3566 85.5099C56.4403 85.8062 56.5966 86.0262 56.8255 86.1697C57.0545 86.3132 57.3094 86.3715 57.5903 86.3446C57.7976 86.3263 58.1983 86.2337 58.7924 86.0667L59.5888 85.8428Z" fill="#FF4655"/>
<path d="M51.6505 80.5629L51.9918 89.0176L45.7069 89.2701L45.6492 87.8398L50.2226 87.6561L50.147 85.7818L45.8915 85.9527L45.834 84.5282L50.0894 84.3573L49.9965 82.0562L45.2612 82.2463L45.2037 80.8218L51.6505 80.5629Z" fill="#FF4655"/>
<path d="M43.7195 80.704L41.9825 88.9863L38.4539 88.2501C37.5665 88.0649 36.9385 87.8552 36.5699 87.6211C36.1966 87.3899 35.9291 87.0589 35.7672 86.628C35.6053 86.1972 35.5757 85.737 35.6784 85.2473C35.8087 84.6259 36.0997 84.15 36.5513 83.8196C37.0021 83.493 37.6029 83.3531 38.3538 83.3997C38.0355 83.1131 37.7858 82.8192 37.6046 82.518C37.4196 82.216 37.1946 81.7013 36.9294 80.9737L36.2544 79.1463L38.2595 79.5647L39.0936 81.6199C39.389 82.3537 39.5986 82.8201 39.7224 83.0189C39.8454 83.2215 39.9894 83.3714 40.1542 83.4687C40.3183 83.5698 40.5929 83.6605 40.978 83.7408L41.3179 83.8117L42.043 80.3541L43.7195 80.704ZM41.0406 85.1337L39.8002 84.8749C38.9959 84.7071 38.4866 84.6362 38.2723 84.6623C38.0579 84.6883 37.8767 84.7724 37.7287 84.9144C37.5807 85.0565 37.4806 85.2519 37.4284 85.5004C37.3699 85.7791 37.3985 86.019 37.514 86.22C37.6249 86.424 37.8115 86.5769 38.0739 86.6789C38.206 86.7258 38.6118 86.8203 39.2914 86.9624L40.5998 87.2354L41.0406 85.1337Z" fill="#FF4655"/>
<path d="M72.0014 6.80282L6.48287 69.6266C2.63476 73.3164 2.40258 79.5224 5.96426 83.4881L9.07396 86.9505C12.6356 90.9162 18.6425 91.1398 22.4906 87.45L88.0091 24.6262C91.8572 20.9364 92.0894 14.7304 88.5277 10.7647L85.418 7.30228C81.8563 3.3366 75.8495 3.11298 72.0014 6.80282Z" fill="#FF4655"/>
<path d="M19.8758 63.4597L28.9502 72.9056L26.4877 75.2594L22.6763 71.292L21.9393 71.9964L25.7507 75.9638L23.2882 78.3175L14.2137 68.8716L16.6763 66.5179L19.9215 69.896L20.6585 69.1916L17.4133 65.8134L19.8758 63.4597Z" fill="#0E1831"/>
<path d="M24.9408 58.6185L34.0152 68.0644L31.5527 70.4181L22.4783 60.9722L24.9408 58.6185Z" fill="#0E1831"/>
<path d="M27.5433 56.1309L29.2864 54.4648C30.4484 53.3541 31.2772 52.6478 31.7726 52.3459C32.2719 52.0403 32.8277 51.9492 33.44 52.0728C34.0525 52.1887 34.7455 52.6492 35.519 53.4544C36.2252 54.1895 36.6081 54.7711 36.6677 55.1991C36.7273 55.6271 36.5124 56.1235 36.0228 56.6884C36.6261 56.3431 37.1087 56.1915 37.4707 56.2334C37.8327 56.2754 38.1154 56.3634 38.3188 56.4972C38.5224 56.6235 38.9904 57.0677 39.7228 57.8301L42.1161 60.3214L39.8291 62.5074L36.8136 59.3685C36.3278 58.8628 35.9861 58.5888 35.7884 58.5465C35.5945 58.5005 35.328 58.6396 34.9887 58.9639L39.0803 63.223L36.6178 65.5767L27.5433 56.1309ZM31.5584 55.3933L33.5762 57.4937C33.8531 57.229 34.0106 57.0076 34.0488 56.8294C34.0872 56.6435 33.9064 56.3424 33.5066 55.9263L33.0078 55.407C32.7201 55.1075 32.4768 54.9633 32.2779 54.9743C32.083 54.9816 31.8431 55.1213 31.5585 55.3933L31.5584 55.3933Z" fill="#0E1831"/>
<path d="M35.609 48.4216L39.7151 44.4969L41.5312 46.3873L39.8875 47.9583L41.6082 49.7494L43.1466 48.2791L44.8729 50.0761L43.3346 51.5465L45.3299 53.6235L47.1373 51.8959L48.9534 53.7863L44.6834 57.8676L35.609 48.4216Z" fill="#0E1831"/>
<path d="M53.5243 31.2979L62.5987 40.7438L60.4462 42.8012L54.32 36.4242L59.5864 43.6231L58.0597 45.0823L51.167 39.7177L57.1531 45.9488L55.0006 48.0062L45.9261 38.5603L49.114 35.5133C49.7531 35.9918 50.4953 36.5657 51.3404 37.2352L53.9889 39.3148L50.3131 34.3672L53.5243 31.2979Z" fill="#0E1831"/>
<path d="M56.1268 28.8103L60.2329 24.8856L62.0489 26.776L60.4053 28.347L62.126 30.1381L63.6644 28.6677L65.3907 30.4647L63.8523 31.9351L65.8477 34.0122L67.6551 32.2846L69.4711 34.175L65.2012 38.2562L56.1268 28.8103Z" fill="#0E1831"/>
<path d="M68.9709 16.5338L75.4173 24.015L73.5923 25.7593L66.3738 19.0161L68.9709 16.5338ZM76.0363 24.2739L77.8523 26.1643L75.6413 28.2776L73.8253 26.3872L76.0363 24.2739Z" fill="#0E1831"/>
</g>
<defs>
<clipPath id="clip0_70_219">
<rect width="94.492" height="94.253" fill="white"/>
</clipPath>
</defs>
</svg>
