<svg width="100" height="100" viewBox="0 0 100 100" fill="none" xmlns="http://www.w3.org/2000/svg">
<g clip-path="url(#clip0_673_3884)">
<path d="M56.1792 0.000285152C55.4243 0.0253363 54.6819 0.199486 53.9947 0.512703C53.3075 0.825919 52.6891 1.27201 52.175 1.82529L29.65 25.942L13.5917 43.1336C11.2529 45.6238 9.52796 48.6257 8.55416 51.9003C8.34548 52.6038 8.17165 53.3171 8.03333 54.0378C7.40901 57.2986 7.49713 60.6559 8.29166 63.8794C8.64482 65.3337 9.13161 66.7523 9.74583 68.117C11.0196 70.9522 12.8162 73.522 15.0417 75.692L32.8625 93.1628L33.025 93.3211C42.3917 102.342 57.4083 102.209 66.6208 93.0128L76.6042 83.0461C78.8542 80.7961 78.8542 77.1544 76.6167 74.9003C76.0842 74.3649 75.4513 73.9398 74.7542 73.6494C74.0572 73.359 73.3098 73.2089 72.5547 73.2077C71.7996 73.2066 71.0516 73.3544 70.3537 73.6426C69.6558 73.9309 69.0216 74.3541 68.4875 74.8878L58.5042 84.8545C56.1765 87.1518 53.0461 88.4529 49.7758 88.4825C46.5055 88.5121 43.3521 87.2676 40.9833 85.0128L40.9 84.9336L23.0833 67.4628C20.3667 64.7961 19.0333 61.3419 19.1333 58.0336C19.1532 57.3 19.2453 56.57 19.4083 55.8544C19.8271 54.0393 20.7167 52.3665 21.9875 51.0044L38.0417 33.8086C42.45 29.0836 51.3917 28.517 56.5 32.6503L71.0875 44.4461C73.5583 46.4461 77.175 46.0586 79.1708 43.5836C80.1275 42.3947 80.574 40.875 80.4123 39.3575C80.2506 37.84 79.4941 36.4485 78.3083 35.4878L63.725 23.692C60.3917 20.9961 56.3667 19.3378 52.1667 18.6836L60.5625 9.69195C61.3364 8.85979 61.8472 7.81751 62.0308 6.69601C62.2143 5.5745 62.0624 4.42377 61.594 3.38833C61.1257 2.35288 60.3619 1.47889 59.3985 0.876108C58.4352 0.273327 57.3151 -0.0313692 56.1792 0.000285152ZM44.2375 53.3961C43.4817 53.3961 42.7333 53.5451 42.0351 53.8346C41.337 54.1241 40.7027 54.5484 40.1687 55.0832C39.6346 55.618 39.2113 56.2529 38.9228 56.9515C38.6343 57.65 38.4864 58.3986 38.4875 59.1544C38.4864 59.9102 38.6343 60.6589 38.9228 61.3574C39.2113 62.056 39.6346 62.6909 40.1687 63.2257C40.7027 63.7605 41.337 64.1848 42.0351 64.4743C42.7333 64.7638 43.4817 64.9128 44.2375 64.9128H86.625C87.3808 64.9128 88.1292 64.7638 88.8273 64.4743C89.5255 64.1848 90.1598 63.7605 90.6938 63.2257C91.2279 62.6909 91.6512 62.056 91.9397 61.3574C92.2282 60.6589 92.3761 59.9102 92.375 59.1544C92.3761 58.3986 92.2282 57.65 91.9397 56.9515C91.6512 56.2529 91.2279 55.618 90.6938 55.0832C90.1598 54.5484 89.5255 54.1241 88.8273 53.8346C88.1292 53.5451 87.3808 53.3961 86.625 53.3961H44.2375Z" fill="white"/>
</g>
<defs>
<clipPath id="clip0_673_3884">
<rect width="100" height="100" fill="white"/>
</clipPath>
</defs>
</svg>
